<svg width="70" height="70" viewBox="0 0 70 70" fill="none" xmlns="http://www.w3.org/2000/svg">
<path fill-rule="evenodd" clip-rule="evenodd" d="M19.2763 14.6213C23.649 10.8506 29.2261 8.76811 35 8.75C46.7687 8.75 56.5381 17.5 57.6012 28.7831C64.5663 29.7675 70 35.5994 70 42.7569C70 50.6144 63.4463 56.875 55.5056 56.875H16.5419C7.4725 56.875 0 49.7262 0 40.7663C0 33.0531 5.53875 26.6656 12.8712 25.0469C13.4969 21.2712 15.925 17.5087 19.2763 14.6213ZM22.1331 17.9331C18.8212 20.79 17.0887 24.2331 17.0887 26.9281V28.8881L15.1419 29.1025C9.03 29.7719 4.375 34.79 4.375 40.7663C4.375 47.1844 9.75625 52.5 16.5419 52.5H55.5056C61.1625 52.5 65.625 48.0725 65.625 42.7569C65.625 37.4369 61.1625 33.0094 55.5056 33.0094H53.3181V30.8219C53.3225 21.1094 45.185 13.125 35 13.125C30.2745 13.1439 25.7112 14.8506 22.1331 17.9375V17.9331Z" fill="#2C98F0"/>
<path fill-rule="evenodd" clip-rule="evenodd" d="M33.3915 22.5177C33.5947 22.3139 33.8361 22.1523 34.1019 22.042C34.3676 21.9318 34.6525 21.875 34.9403 21.875C35.228 21.875 35.5129 21.9318 35.7787 22.042C36.0444 22.1523 36.2858 22.3139 36.489 22.5177L45.239 31.2677C45.4424 31.471 45.6037 31.7125 45.7138 31.9782C45.8239 32.244 45.8805 32.5288 45.8805 32.8164C45.8805 33.104 45.8239 33.3889 45.7138 33.6546C45.6037 33.9203 45.4424 34.1618 45.239 34.3652C45.0356 34.5685 44.7942 34.7299 44.5284 34.8399C44.2627 34.95 43.9779 35.0067 43.6903 35.0067C43.4026 35.0067 43.1178 34.95 42.8521 34.8399C42.5863 34.7299 42.3449 34.5685 42.1415 34.3652L37.1278 29.347V45.9414C37.1278 46.5216 36.8973 47.078 36.4871 47.4882C36.0768 47.8984 35.5204 48.1289 34.9403 48.1289C34.3601 48.1289 33.8037 47.8984 33.3935 47.4882C32.9832 47.078 32.7528 46.5216 32.7528 45.9414V29.347L27.739 34.3652C27.3283 34.7759 26.7712 35.0067 26.1903 35.0067C25.6094 35.0067 25.0523 34.7759 24.6415 34.3652C24.2308 33.9544 24 33.3973 24 32.8164C24 32.2355 24.2308 31.6784 24.6415 31.2677L33.3915 22.5177Z" fill="#2C98F0"/>
</svg>
