<?xml version="1.0" standalone="no"?>
<!DOCTYPE svg PUBLIC "-//W3C//DTD SVG 20010904//EN"
 "http://www.w3.org/TR/2001/REC-SVG-20010904/DTD/svg10.dtd">
<svg version="1.0" xmlns="http://www.w3.org/2000/svg"
 width="12.000000pt" height="12.000000pt" viewBox="0 0 512.000000 512.000000"
 preserveAspectRatio="xMidYMid meet">

<g transform="translate(0.000000,512.000000) scale(0.100000,-0.100000)"
fill="#000000" stroke="none">
<path d="M510 4465 c-60 -19 -124 -75 -158 -139 l-27 -51 0 -1715 0 -1715 27
-51 c15 -29 46 -68 70 -88 83 -71 -74 -66 2158 -64 l2015 3 45 23 c61 32 97
67 128 127 l27 50 0 1715 0 1715 -27 51 c-35 66 -98 120 -162 139 -73 22
-4026 21 -4096 0z m3899 -323 c19 -9 43 -33 53 -53 17 -34 18 -95 16 -1342
l-3 -1306 -504 543 c-277 299 -516 551 -532 560 -35 21 -111 21 -152 0 -18
-10 -77 -55 -132 -102 -141 -120 -167 -136 -224 -136 -29 0 -61 8 -82 20 -19
11 -171 168 -339 349 -327 353 -341 364 -435 365 -69 0 -121 -27 -180 -92 -28
-30 -320 -381 -650 -780 l-600 -724 -3 1308 c-2 1446 -7 1347 61 1388 31 20
65 20 1852 20 1713 0 1822 -1 1854 -18z"/>
<path d="M3561 3824 c-253 -68 -410 -331 -346 -579 67 -256 329 -415 580 -350
256 67 415 329 350 578 -67 259 -333 419 -584 351z"/>
</g>
</svg>
