<svg width="38" height="34" viewBox="0 0 38 34" fill="none" xmlns="http://www.w3.org/2000/svg">
<g clip-path="url(#clip0)">
<path fill-rule="evenodd" clip-rule="evenodd" d="M28.6968 8.51472C31.1641 10.7652 32.5503 13.8174 32.5503 17C32.5503 20.1826 31.1641 23.2348 28.6968 25.4853C26.2294 27.7357 22.8829 29 19.3935 29C15.9042 29 12.5577 27.7357 10.0903 25.4853C7.62296 23.2348 6.23681 20.1826 6.23681 17C6.23681 13.8174 7.62296 10.7652 10.0903 8.51472C12.5577 6.26428 15.9042 5 19.3935 5C22.8829 5 26.2294 6.26428 28.6968 8.51472ZM15.9048 12.7574C15.7506 12.6167 15.5415 12.5377 15.3234 12.5377C15.1053 12.5377 14.8961 12.6167 14.7419 12.7574C14.5877 12.898 14.5011 13.0888 14.5011 13.2877C14.5011 13.4866 14.5877 13.6774 14.7419 13.818L18.2306 17L14.7419 20.182C14.5877 20.3226 14.5011 20.5134 14.5011 20.7123C14.5011 20.9112 14.5877 21.102 14.7419 21.2426C14.8961 21.3833 15.1053 21.4623 15.3234 21.4623C15.5415 21.4623 15.7506 21.3833 15.9048 21.2426L19.3935 18.0607L22.8822 21.2426C23.0365 21.3833 23.2456 21.4623 23.4637 21.4623C23.6818 21.4623 23.8909 21.3833 24.0451 21.2426C24.1994 21.102 24.286 20.9112 24.286 20.7123C24.286 20.5134 24.1994 20.3226 24.0451 20.182L20.5564 17L24.0451 13.818C24.1994 13.6774 24.286 13.4866 24.286 13.2877C24.286 13.0888 24.1994 12.898 24.0451 12.7574C23.8909 12.6167 23.6818 12.5377 23.4637 12.5377C23.2456 12.5377 23.0365 12.6167 22.8822 12.7574L19.3935 15.9393L15.9048 12.7574Z" fill="#2C98F0"/>
</g>
<defs>
<clipPath id="clip0">
<rect width="25.1833" height="25.1833" fill="white" transform="matrix(0.73884 -0.673881 0.73884 0.673881 0.787109 17)"/>
</clipPath>
</defs>
</svg>
